<svg version="1.1" id="Layer_1" xmlns="http://www.w3.org/2000/svg" xmlns:xlink="http://www.w3.org/1999/xlink" x="0px" y="0px" viewBox="0 0 500 500" style="width: 188px;" xml:space="preserve" data-imageid="career-3-92" imageName="Career 3" class="illustrations_image">
<style type="text/css">
	.st0_career-3-92{fill:#FFFFFF;}
	.st1_career-3-92{fill:#D1D3D4;}
	.st2_career-3-92{fill:#231F20;}
	.st3_career-3-92{fill:#68E1FD;}
</style>
<g id="Cloud_BG_career-3-92">
	<path class="st0_career-3-92" d="M376.6,156.5h19.5c4.9,0,8.8-3.2,8.8-7.2c0-3.7-3.4-6.7-7.8-7.1c0.1-0.5,0.2-1,0.2-1.5c0-4.2-4.1-7.5-9.3-7.5&#10;&#9;&#9;c-1.4,0-2.7,0.3-4,0.8c0-0.1,0-0.2,0-0.3c0-4.1-4.2-7.5-9.3-7.5c-3.8,0-7.1,1.9-8.5,4.5c-1-0.2-2-0.3-3.1-0.2&#10;&#9;&#9;c-8.2,0-14.9,5.2-15.4,11.7c-4.8,0.1-8.7,3.2-8.7,7.2s4,7.2,8.8,7.2"/>
	<path class="st1_career-3-92" d="M396.1,157.3h-19.5c-0.4,0-0.8-0.4-0.8-0.8s0.4-0.8,0.8-0.8l0,0h19.5c4.4,0,8-2.9,8-6.4c0-3.2-3-5.9-7-6.3&#10;&#9;&#9;c-0.2,0-0.4-0.2-0.6-0.3c-0.1-0.2-0.2-0.4-0.1-0.6c0.1-0.4,0.1-0.8,0.1-1.3c0-3.7-3.8-6.7-8.5-6.7c-1.3,0-2.5,0.2-3.7,0.7&#10;&#9;&#9;c-0.2,0.1-0.5,0.1-0.8-0.1c-0.2-0.2-0.3-0.4-0.3-0.7l0.7-0.2l0,0h-0.7c0-3.7-3.8-6.7-8.5-6.7c-3.4,0-6.5,1.6-7.8,4.1&#10;&#9;&#9;c-0.2,0.3-0.5,0.5-0.8,0.4c-1-0.2-2-0.2-2.9-0.2c-7.7,0-14.1,4.8-14.6,11c0,0.4-0.4,0.7-0.8,0.7c-4.4,0-7.9,2.9-7.9,6.4&#10;&#9;&#9;s3.6,6.4,8,6.4c0.4,0,0.8,0.4,0.8,0.8s-0.4,0.8-0.8,0.8c-5.3,0-9.6-3.6-9.6-8c0-4.1,3.9-7.6,8.8-7.9c1-6.6,7.9-11.7,16.1-11.7&#10;&#9;&#9;c0.9,0,1.8,0.1,2.6,0.2c2-2.9,5.4-4.6,8.9-4.4c5.2,0,9.5,3.3,10,7.5c1.1-0.3,2.1-0.5,3.2-0.4c5.5,0,10.1,3.7,10.1,8.3&#10;&#9;&#9;c0,0.3,0,0.5,0,0.8c4.4,0.8,7.6,4,7.6,7.8C405.8,153.8,401.5,157.3,396.1,157.3z"/>
	<path class="st0_career-3-92" d="M448.8,304.8c12.8-1.9,7.6-15.3,0.6-15.3c-0.5-7-7.7-12.5-16.4-12.5c-1.1,0-2.2,0.1-3.3,0.3&#10;&#9;&#9;c-1.5-2.8-5-4.8-9.1-4.8c-5.5,0-9.9,3.6-9.9,8c0,0.1,0,0.2,0,0.3c-1.4-0.5-2.8-0.8-4.3-0.8c-5.5,0-9.9,3.6-9.9,8&#10;&#9;&#9;c0,0.5,0.1,1,0.2,1.5c-4.7,0.5-8.3,3.7-8.3,7.6c0,4.2,4.2,7.6,9.4,7.6"/>
	<path class="st1_career-3-92" d="M448.8,305.6c-0.4,0-0.8-0.4-0.8-0.8c0-0.4,0.3-0.7,0.7-0.8c4.8-0.7,7.4-3.2,7.1-6.8s-3.3-6.9-6.4-6.9&#10;&#9;&#9;c-0.4,0-0.8-0.3-0.8-0.7c-0.5-6.6-7.4-11.8-15.6-11.8c-1.1,0-2.1,0.1-3.1,0.2c-0.3,0.1-0.7-0.1-0.8-0.4c-1.4-2.7-4.7-4.4-8.4-4.4&#10;&#9;&#9;c-5,0-9.1,3.2-9.1,7.2c0,0,0,0.2,0,0.2c0,0.3-0.1,0.5-0.3,0.7c-0.2,0.2-0.5,0.2-0.8,0.1c-1.3-0.5-2.6-0.7-4-0.7&#10;&#9;&#9;c-5,0-9.1,3.2-9.1,7.2c0,0.5,0.1,0.9,0.2,1.4c0.1,0.2,0,0.5-0.1,0.6c-0.1,0.2-0.3,0.3-0.6,0.3c-4.3,0.4-7.5,3.4-7.5,6.8&#10;&#9;&#9;c0,3.8,3.9,6.9,8.6,6.9c0.4,0,0.8,0.4,0.8,0.8c0,0.4-0.4,0.8-0.8,0.8c-5.6,0-10.2-3.8-10.2-8.5c0-4,3.4-7.5,8.1-8.3&#10;&#9;&#9;c0-0.3-0.1-0.6,0-0.9c0-4.9,4.8-8.8,10.7-8.8c1.2,0,2.4,0.2,3.5,0.5c0.5-4.5,5.1-8,10.7-8c3.8-0.1,7.3,1.7,9.5,4.7&#10;&#9;&#9;c0.9-0.1,1.9-0.2,2.9-0.2c8.8,0,16.2,5.5,17.1,12.5c3.7,0.5,7,4.2,7.3,8.3C457.7,301.6,454.6,304.7,448.8,305.6L448.8,305.6z"/>
</g>
<g id="Box_2_career-3-92">
	<polygon class="st0_career-3-92" points="221.2,346.8 165.6,314.7 221.2,282.6 276.8,314.7 &#9;"/>
	<path class="st2_career-3-92" d="M221.2,347.5c-0.1,0-0.3,0-0.4-0.1l-55.6-32.1c-0.4-0.2-0.5-0.7-0.3-1.1c0.1-0.1,0.2-0.2,0.3-0.3l55.6-32.1&#10;&#9;&#9;c0.2-0.1,0.6-0.1,0.8,0l55.6,32.1c0.2,0.1,0.4,0.4,0.4,0.7c0,0.3-0.2,0.6-0.4,0.7l-55.6,32.1C221.5,347.5,221.3,347.6,221.2,347.5z&#10;&#9;&#9; M167.2,314.7l54,31.2l54-31.2l-54-31.2L167.2,314.7z"/>
	<polygon class="st0_career-3-92" points="276.8,390.9 221.2,423 221.2,346.8 276.8,314.7 &#9;"/>
	<path class="st2_career-3-92" d="M221.2,423.8c-0.1,0-0.3,0-0.4-0.1c-0.2-0.1-0.4-0.4-0.4-0.7v-76.2c0-0.3,0.2-0.5,0.4-0.7l55.6-32.1&#10;&#9;&#9;c0.2-0.1,0.6-0.1,0.8,0c0.2,0.1,0.4,0.4,0.4,0.7v76.2c0,0.3-0.2,0.5-0.4,0.7l-55.6,32.1C221.5,423.8,221.3,423.8,221.2,423.8z&#10;&#9;&#9; M222,347.2v74.4l54-31.2V316L222,347.2z M276.8,390.9L276.8,390.9z"/>
	<polygon class="st0_career-3-92" points="221.2,423 165.6,390.9 165.6,314.7 221.2,346.8 &#9;"/>
	<path class="st2_career-3-92" d="M221.2,423.8c-0.1,0-0.3,0-0.4-0.1l-55.6-32.1c-0.2-0.1-0.4-0.4-0.4-0.7v-76.2c0-0.3,0.2-0.6,0.4-0.7&#10;&#9;&#9;c0.2-0.1,0.6-0.1,0.8,0l55.6,32.1c0.2,0.1,0.4,0.4,0.4,0.7V423c0,0.3-0.2,0.6-0.4,0.7C221.5,423.8,221.3,423.8,221.2,423.8z&#10;&#9;&#9; M166.4,390.4l54,31.2v-74.4l-54-31.2V390.4z"/>
</g>
<g id="Box_1_career-3-92">
	<polygon class="st0_career-3-92" points="377.1,368.5 329,340.7 377.1,312.9 425.2,340.7 &#9;"/>
	<path class="st2_career-3-92" d="M377.1,369.3c-0.1,0-0.3,0-0.4-0.1l-48.1-27.8c-0.2-0.1-0.4-0.4-0.4-0.7c0-0.3,0.2-0.6,0.4-0.7l48.1-27.8&#10;&#9;&#9;c0.2-0.1,0.6-0.1,0.8,0l48.1,27.8c0.2,0.1,0.4,0.4,0.4,0.7c0,0.3-0.2,0.5-0.4,0.7l-48.1,27.8C377.4,369.2,377.2,369.3,377.1,369.3z&#10;&#9;&#9; M330.6,340.7l46.5,26.9l46.5-26.9l-46.5-26.9L330.6,340.7z"/>
	<polygon class="st0_career-3-92" points="425.2,384.9 377.1,412.7 377.1,368.5 425.2,340.7 &#9;"/>
	<path class="st2_career-3-92" d="M377.1,413.5c-0.1,0-0.3,0-0.4-0.1c-0.2-0.1-0.4-0.4-0.4-0.7v-44.2c0-0.3,0.2-0.5,0.4-0.7l48.1-27.8&#10;&#9;&#9;c0.4-0.2,0.9-0.1,1.1,0.3c0.1,0.1,0.1,0.3,0.1,0.4v44.2c0,0.3-0.2,0.6-0.4,0.7l-48.1,27.8C377.4,413.4,377.2,413.5,377.1,413.5z&#10;&#9;&#9; M377.9,368.9v42.4l46.5-26.9v-42.4L377.9,368.9z M425.2,384.9L425.2,384.9z"/>
	<polygon class="st0_career-3-92" points="377.1,412.7 329,384.9 329,340.7 377.1,368.5 &#9;"/>
	<path class="st2_career-3-92" d="M377.1,413.5c-0.1,0-0.3,0-0.4-0.1l-48.1-27.8c-0.2-0.1-0.4-0.4-0.4-0.7v-44.2c0-0.4,0.4-0.8,0.8-0.8&#10;&#9;&#9;c0.1,0,0.3,0,0.4,0.1l48.1,27.8c0.2,0.1,0.4,0.4,0.4,0.7v44.2c0,0.3-0.2,0.6-0.4,0.7C377.4,413.4,377.2,413.5,377.1,413.5z&#10;&#9;&#9; M329.8,384.5l46.5,26.9v-42.4l-46.5-26.9V384.5z"/>
</g>
<g id="Box_3_career-3-92">
	<polygon class="st0_career-3-92" points="101.5,271.4 61,248 101.5,224.6 142,248 &#9;"/>
	<path class="st2_career-3-92" d="M101.5,272.2c-0.1,0-0.3,0-0.4-0.1l-40.5-23.4c-0.2-0.1-0.4-0.4-0.4-0.7c0-0.3,0.2-0.5,0.4-0.7l40.5-23.4&#10;&#9;&#9;c0.2-0.1,0.6-0.1,0.8,0l40.5,23.4c0.4,0.2,0.5,0.7,0.3,1.1c-0.1,0.1-0.2,0.2-0.3,0.3l-40.5,23.4&#10;&#9;&#9;C101.8,272.1,101.6,272.2,101.5,272.2z M62.6,248l38.9,22.5l38.9-22.5l-38.9-22.5L62.6,248z"/>
	<polygon class="st0_career-3-92" points="142,284.9 101.5,308.3 101.5,271.4 142,248 &#9;"/>
	<path class="st2_career-3-92" d="M101.5,309.1c-0.4,0-0.8-0.4-0.8-0.8v-36.9c0-0.3,0.2-0.6,0.4-0.7l40.5-23.4c0.4-0.2,0.9-0.1,1.1,0.3&#10;&#9;&#9;c0.1,0.1,0.1,0.3,0.1,0.4v36.9c0,0.3-0.2,0.6-0.4,0.7L101.9,309C101.8,309.1,101.6,309.1,101.5,309.1z M102.3,271.8v35l38.9-22.5&#10;&#9;&#9;v-35.1L102.3,271.8z M142,284.8L142,284.8z"/>
	<polygon class="st0_career-3-92" points="101.5,308.3 61,284.9 61,248 101.5,271.4 &#9;"/>
	<path class="st2_career-3-92" d="M101.5,309.1c-0.1,0-0.3,0-0.4-0.1l-40.5-23.4c-0.2-0.1-0.4-0.4-0.4-0.7V248c0-0.3,0.2-0.6,0.4-0.7&#10;&#9;&#9;c0.2-0.1,0.6-0.1,0.8,0l40.5,23.4c0.2,0.1,0.4,0.4,0.4,0.7v36.9C102.3,308.7,101.9,309.1,101.5,309.1L101.5,309.1z M61.8,284.4&#10;&#9;&#9;l38.9,22.5v-35.1l-38.9-22.5V284.4z"/>
</g>
<g id="Cloud_career-3-92">
	<path class="st0_career-3-92" d="M105.6,335.3h32.5c8.1,0,14.7-5.3,14.7-11.9c0-6.1-5.6-11.1-12.9-11.8c0.2-0.8,0.3-1.6,0.3-2.4&#10;&#9;&#9;c0-6.9-6.9-12.5-15.4-12.5c-2.3,0-4.5,0.4-6.7,1.2c0-0.1,0-0.3,0-0.4c0-6.9-6.9-12.5-15.4-12.5c-6.3,0-11.8,3.1-14.2,7.5&#10;&#9;&#9;c-1.7-0.3-3.4-0.4-5.1-0.4c-13.6,0-24.8,8.6-25.6,19.5c-8,0.1-14.5,5.4-14.5,11.9s6.6,11.9,14.7,11.9"/>
	<path class="st1_career-3-92" d="M138.1,336.1h-32.5c-0.4,0-0.8-0.4-0.8-0.8c0-0.4,0.4-0.8,0.8-0.8l0,0h32.5c7.7,0,13.9-5,13.9-11.1&#10;&#9;&#9;c0-5.6-5.2-10.4-12.2-11c-0.2,0-0.4-0.1-0.6-0.3c-0.1-0.2-0.2-0.4-0.1-0.6c0.2-0.7,0.3-1.5,0.3-2.2c0-6.5-6.6-11.7-14.6-11.7&#10;&#9;&#9;c-2.2,0-4.3,0.4-6.4,1.2c-0.4,0.2-0.9,0-1-0.4c0-0.1-0.1-0.2-0.1-0.3v-0.4c0-6.5-6.6-11.7-14.6-11.7c-5.8,0-11.1,2.8-13.4,7.1&#10;&#9;&#9;c-0.2,0.3-0.5,0.5-0.8,0.4c-1.7-0.3-3.3-0.4-5-0.4c-13.1,0-24,8.2-24.8,18.8c0,0.4-0.4,0.7-0.8,0.7c-7.6,0.1-13.7,5.1-13.7,11.1&#10;&#9;&#9;s6.3,11.1,13.9,11.1c0.4,0,0.8,0.4,0.8,0.8c0,0.4-0.4,0.8-0.8,0.8c-8.6,0-15.5-5.7-15.5-12.7c0-6.7,6.5-12.3,14.6-12.7&#10;&#9;&#9;c1.3-11,12.7-19.5,26.3-19.5c1.6,0,3.1,0.1,4.7,0.3c2.7-4.5,8.4-7.4,14.6-7.4c8.7,0,15.8,5.6,16.2,12.6c1.9-0.6,3.9-0.9,5.9-0.9&#10;&#9;&#9;c8.9,0,16.2,6,16.2,13.3c0,0.6,0,1.2-0.1,1.7c7.3,1.1,12.8,6.3,12.8,12.5C153.6,330.4,146.7,336.1,138.1,336.1z"/>
</g>
<g id="Box_4_career-3-92">
	<polygon class="st0_career-3-92" points="109.8,157.3 133.3,143.7 109.8,130.2 86.3,143.7 &#9;"/>
	<path class="st2_career-3-92" d="M109.8,158.1c-0.1,0-0.3,0-0.4-0.1l-23.5-13.6c-0.4-0.2-0.5-0.7-0.3-1.1c0.1-0.1,0.2-0.2,0.3-0.3l23.5-13.6&#10;&#9;&#9;c0.2-0.1,0.6-0.1,0.8,0l23.5,13.5c0.4,0.2,0.5,0.7,0.3,1.1c-0.1,0.1-0.2,0.2-0.3,0.3L110.2,158C110.1,158.1,110,158.1,109.8,158.1z&#10;&#9;&#9; M87.9,143.7l21.9,12.6l21.9-12.6l-21.9-12.6L87.9,143.7z"/>
	<polygon class="st0_career-3-92" points="86.3,170.9 109.8,184.4 109.8,157.3 86.3,143.7 &#9;"/>
	<path class="st2_career-3-92" d="M109.8,185.2c-0.1,0-0.3,0-0.4-0.1l-23.5-13.6c-0.2-0.1-0.4-0.4-0.4-0.7v-27.1c0-0.3,0.2-0.6,0.4-0.7&#10;&#9;&#9;c0.2-0.1,0.6-0.1,0.8,0l23.5,13.6c0.2,0.1,0.4,0.4,0.4,0.7v27.1c0,0.3-0.2,0.5-0.4,0.7C110.1,185.2,110,185.2,109.8,185.2z&#10;&#9;&#9; M87.1,170.4L109,183v-25.2l-21.9-12.6V170.4z"/>
	<polygon class="st0_career-3-92" points="109.8,184.4 133.3,170.9 133.3,143.7 109.8,157.3 &#9;"/>
	<path class="st2_career-3-92" d="M109.8,185.2c-0.1,0-0.3,0-0.4-0.1c-0.2-0.1-0.4-0.4-0.4-0.7v-27.1c0-0.3,0.2-0.6,0.4-0.7l23.5-13.6&#10;&#9;&#9;c0.2-0.1,0.6-0.1,0.8,0c0.2,0.1,0.4,0.4,0.4,0.7v27.1c0,0.3-0.2,0.6-0.4,0.7l-23.5,13.6C110.1,185.2,110,185.2,109.8,185.2z&#10;&#9;&#9; M110.6,157.8V183l21.9-12.6v-25.2L110.6,157.8z"/>
</g>
<g id="Flag_career-3-92">
	<path class="st3_career-3-92 targetColor" d="M61,100c24.3,16.5,36-11.7,48.6,6.4v-26C87,68.8,89.7,94.8,61,100z" style="fill: rgb(255, 142, 60);"/>
	<path class="st2_career-3-92" d="M109.5,144.6c-0.5,0-0.8-0.4-0.8-0.8l0,0V77.1c0.1-0.5,0.5-0.8,0.9-0.7c0.4,0,0.7,0.3,0.7,0.7v66.7&#10;&#9;&#9;C110.4,144.2,110,144.6,109.5,144.6z"/>
</g>
<g id="Box_5_career-3-92">
	<polygon class="st0_career-3-92" points="212.1,115.8 193.9,105.3 212.1,94.8 230.3,105.3 &#9;"/>
	<path class="st1_career-3-92" d="M212.1,116.7c-0.1,0-0.3,0-0.4-0.1L193.5,106c-0.2-0.1-0.4-0.4-0.4-0.7c0-0.3,0.2-0.6,0.4-0.7l18.2-10.5&#10;&#9;&#9;c0.2-0.1,0.6-0.1,0.8,0l18.2,10.5c0.2,0.1,0.4,0.4,0.4,0.7c0,0.3-0.2,0.5-0.4,0.7l-18.2,10.5C212.4,116.6,212.2,116.6,212.1,116.7z&#10;&#9;&#9; M195.5,105.3l16.6,9.6l16.6-9.6l-16.6-9.6L195.5,105.3z"/>
	<polygon class="st0_career-3-92" points="230.3,123.3 212.1,133.8 212.1,115.8 230.3,105.3 &#9;"/>
	<path class="st1_career-3-92" d="M212.1,134.6c-0.1,0-0.3,0-0.4-0.1c-0.2-0.1-0.4-0.4-0.4-0.7v-18c0-0.3,0.2-0.6,0.4-0.7l18.2-10.5&#10;&#9;&#9;c0.2-0.1,0.6-0.1,0.8,0c0.2,0.1,0.4,0.4,0.4,0.7v18c0,0.3-0.2,0.5-0.4,0.7l-18.2,10.5C212.4,134.6,212.2,134.6,212.1,134.6z&#10;&#9;&#9; M212.9,116.3v16.1l16.6-9.6v-16.1L212.9,116.3z M230.3,123.3L230.3,123.3z"/>
	<polygon class="st0_career-3-92" points="212.1,133.8 193.9,123.3 193.9,105.3 212.1,115.8 &#9;"/>
	<path class="st1_career-3-92" d="M212.1,134.6c-0.1,0-0.3,0-0.4-0.1L193.5,124c-0.2-0.1-0.4-0.4-0.4-0.7v-18c0-0.4,0.4-0.8,0.8-0.8&#10;&#9;&#9;c0.1,0,0.3,0,0.4,0.1l18.2,10.5c0.2,0.1,0.4,0.4,0.4,0.7v18c0,0.3-0.2,0.5-0.4,0.7C212.4,134.6,212.2,134.6,212.1,134.6z&#10;&#9;&#9; M194.7,122.8l16.6,9.6v-16.1l-16.6-9.6V122.8z"/>
</g>
<g id="Character_career-3-92">
	<path class="st2_career-3-92" d="M261.9,129.4h-0.2c-1.3,0-2.4-0.6-3.3-1.5c-0.9-0.9-1.3-2.1-1.3-3.4c0-1.3,0.6-2.4,1.5-3.3&#10;&#9;&#9;c0.9-0.9,2.1-1.3,3.4-1.3c1.3,0,2.4,0.6,3.3,1.5c0.9,0.9,1.3,2.1,1.3,3.4C266.6,127.4,264.5,129.4,261.9,129.4z M261.9,121.5&#10;&#9;&#9;c-1.7,0-3.1,1.3-3.1,3l0,0c-0.1,1.7,1.3,3.2,3,3.2c1.7,0.1,3.2-1.3,3.2-3c0.1-1.7-1.3-3.2-3-3.2H261.9z M258,124.5L258,124.5z"/>
	<path class="st0_career-3-92" d="M289.6,142.7c1.8,0,3.5-0.3,5.6-0.4c1.9-0.1,4.4-0.7,4.5-2.6c0.1-1.6-1.8-3-1.4-4.6c0.2-0.4,0.4-0.8,0.7-1.1&#10;&#9;&#9;c5.9-7.4,5-18.2-2.2-24.4c0.5,0.1,1.1-0.2,1.2-0.8c0,0,0-0.1,0-0.1c0-0.6-0.2-1.1-0.6-1.6c-1.4-1.6-3.2-2.8-5.2-3.4&#10;&#9;&#9;c-6.4-2.2-13.3-2.4-19.9-0.7c-5,1.3-11.1,5-10.6,11c0.2,2.2,1.8,4.3,3.9,4.5c0.9,6.4,4.1,10.9,8.2,15.7c2.7,3.3,6.2,5.8,10.2,7.4&#10;&#9;&#9;C285.8,142.3,287.7,142.7,289.6,142.7z"/>
	<path class="st2_career-3-92" d="M289.4,143.5c-1.9,0-3.8-0.3-5.6-1c-4.1-1.6-7.7-4.3-10.5-7.7c-3.6-4.2-7.2-8.9-8.3-15.6&#10;&#9;&#9;c-2.3-0.7-3.9-2.8-4-5.1c-0.5-6.1,5.3-10.4,11.2-11.9c6.7-1.8,13.8-1.6,20.3,0.7c2.2,0.7,4.1,1.9,5.6,3.7c0.5,0.6,0.8,1.4,0.7,2.1&#10;&#9;&#9;c-0.1,0.4-0.2,0.8-0.5,1.1c6.7,6.7,7.2,17.3,1.4,24.6c-0.2,0.3-0.4,0.5-0.6,0.9c-0.2,0.5,0.2,1.1,0.6,1.8c0.5,0.8,0.8,1.7,0.8,2.6&#10;&#9;&#9;c-0.1,2-2.1,3.2-5.3,3.4c-0.9,0-1.7,0.1-2.4,0.2c-1.1,0.1-2.1,0.2-3.2,0.2L289.4,143.5L289.4,143.5z M289.6,142.7L289.6,142.7z&#10;&#9;&#9; M281.6,102.7c-3,0-6,0.4-8.9,1.1c-3.9,1-10.5,4.3-10,10.2c0.1,1.7,1.4,3.6,3.2,3.8c0.4,0,0.7,0.3,0.7,0.7c0.8,5.9,3.5,10.1,8,15.3&#10;&#9;&#9;c2.6,3.2,6,5.7,9.9,7.2c1.6,0.6,3.3,1,5.1,0.9h0.1c1,0,2-0.1,3.1-0.2c0.8-0.1,1.6-0.1,2.5-0.2c0.6,0,3.6-0.3,3.7-1.9&#10;&#9;&#9;c-0.1-0.6-0.3-1.2-0.6-1.7c-1.1-1.3-1.1-3.2,0.1-4.4c5.7-7.1,4.8-17.4-2-23.4c-0.3-0.3-0.4-0.8-0.1-1.1c0.2-0.3,0.6-0.4,0.9-0.2&#10;&#9;&#9;c0,0,0.1-0.1,0.1-0.2c0-0.4-0.1-0.7-0.4-1c-1.3-1.5-3-2.6-4.9-3.2C288.7,103.2,285.1,102.6,281.6,102.7L281.6,102.7z"/>
	<path class="st0_career-3-92" d="M263.7,127.8c0,0-4.8,7.4-3.8,8.9s4.4,0.5,4.4,0.5"/>
	<path class="st2_career-3-92" d="M262,138.3c-1.1,0.1-2.1-0.3-2.8-1.2c-1.1-1.7,1.9-6.9,3.8-9.8c0.2-0.4,0.7-0.5,1.1-0.2&#10;&#9;&#9;c0.4,0.2,0.5,0.7,0.2,1.1l0,0c-2.3,3.5-4.1,7.3-3.8,8c0.5,0.7,2.6,0.4,3.5,0.1c0.4-0.1,0.9,0.2,1,0.6c0.1,0.4-0.1,0.8-0.5,0.9&#10;&#9;&#9;C263.7,138.1,262.8,138.3,262,138.3z"/>
	<path class="st0_career-3-92" d="M264.7,118c-3.1,2.5-2.2,7.9-2.1,11.4c0.1,4.9,0.2,9.8,0.5,14.6c0.2,3.1,8.2,3.1,9.6,2.2l-1.2,12.2l16.8-6.4&#10;&#9;&#9;l-0.7-10.1c0,0-5.5,0.1-8.6-6.2s-2.8-20-2.8-20S267.7,115.6,264.7,118z"/>
	<path class="st2_career-3-92" d="M271.5,159.3c-0.2,0-0.3-0.1-0.5-0.2c-0.2-0.2-0.3-0.4-0.3-0.7l1.1-11c-2.5,0.4-5.2,0.2-7.6-0.8&#10;&#9;&#9;c-1.1-0.4-1.8-1.4-1.9-2.5c-0.3-4.9-0.5-9.8-0.5-14.7c0-0.6,0-1.2-0.1-1.9c-0.2-3.4-0.4-7.7,2.5-10.1l0,0c3.2-2.6,11.7-2.7,12-2.6&#10;&#9;&#9;c0.2,0,0.4,0.1,0.6,0.2c0.2,0.2,0.2,0.4,0.2,0.6c0,0.1-0.3,13.6,2.7,19.6c2.9,5.8,7.8,5.8,7.9,5.8l0,0c0.4,0,0.8,0.3,0.8,0.7&#10;&#9;&#9;l0.7,10.1c0,0.3-0.2,0.7-0.5,0.8l-16.8,6.5C271.7,159.3,271.6,159.3,271.5,159.3z M272.7,145.4c0.1,0,0.3,0,0.4,0.1&#10;&#9;&#9;c0.3,0.2,0.4,0.5,0.4,0.8l-1.1,10.9l15.1-5.9l-0.6-8.8c-1.7-0.2-5.9-1.3-8.6-6.6c-2.8-5.6-2.9-16.4-2.9-19.6&#10;&#9;&#9;c-2.7,0.1-8.1,0.6-10.2,2.3l0,0c-2.2,1.9-2.1,5.7-1.9,8.8c0,0.7,0.1,1.3,0.1,1.9c0.1,4.9,0.2,9.8,0.5,14.6c0,0.4,0.4,0.8,1,1.2&#10;&#9;&#9;c2.3,1.1,6.6,0.9,7.4,0.4C272.4,145.5,272.6,145.4,272.7,145.4z"/>
	<path class="st0_career-3-92" d="M263.2,140.4c0,0,3.8,2.3,5.8-1.6"/>
	<path class="st2_career-3-92" d="M265.7,141.9c-1,0-2-0.3-2.9-0.8c-0.4-0.2-0.5-0.7-0.3-1.1c0,0,0,0,0,0c0.2-0.4,0.7-0.5,1.1-0.3&#10;&#9;&#9;c0.8,0.5,1.8,0.7,2.8,0.5c0.8-0.3,1.5-0.9,1.9-1.8c0.2-0.4,0.7-0.6,1.1-0.3c0.4,0.2,0.6,0.7,0.4,1.1c-0.5,1.2-1.6,2.2-2.9,2.6&#10;&#9;&#9;C266.5,141.8,266.1,141.9,265.7,141.9z"/>
	<path class="st2_career-3-92" d="M283.8,131.4c-0.4,0-0.7-0.3-0.8-0.6c-0.1-0.6-0.3-1.1-0.5-1.7c-2.7-0.4-22.2-3.5-24.5-3.9&#10;&#9;&#9;c-0.4-0.1-0.7-0.5-0.6-0.9c0.1-0.4,0.5-0.7,0.9-0.7c8.4,1.3,24.3,3.8,24.8,3.9c0.4,0,1,0.1,1.6,2.8c0.1,0.4-0.1,0.9-0.5,1&#10;&#9;&#9;c0,0,0,0-0.1,0C283.9,131.5,283.8,131.5,283.8,131.4z M282.8,129.2L282.8,129.2z M282.8,129.2L282.8,129.2z"/>
	<path class="st0_career-3-92" d="M273.1,130.9c0.1-1.2,0.6-2.4,1.4-3.4c0.5-0.8,1.1-1.6,1.8-2.2c0.7-0.6,1.7-0.9,2.6-0.8&#10;&#9;&#9;c0.8,0.2,1.5,0.8,1.9,1.5c0.4,0.7,0.6,1.6,0.6,2.4c0.2,3.7-1.6,7.3-4.8,9.3l0.3-0.3"/>
	<path class="st2_career-3-92" d="M276.6,138.5c-0.4,0-0.8-0.4-0.8-0.8c0-0.2,0.1-0.4,0.2-0.5l0.3-0.3c0.1-0.1,0.3-0.2,0.5-0.3&#10;&#9;&#9;c2.5-1.9,4-5,3.8-8.2c0-0.7-0.2-1.4-0.5-2.1c-0.3-0.6-0.8-1-1.4-1.1c-0.7-0.1-1.4,0.1-2,0.6c-0.6,0.6-1.2,1.3-1.6,2&#10;&#9;&#9;c-0.7,0.8-1.1,1.9-1.2,2.9c0,0.4-0.4,0.8-0.8,0.8l0,0c-0.4,0-0.8-0.4-0.8-0.8c0.1-1.4,0.6-2.7,1.5-3.8c0.5-0.9,1.2-1.7,1.9-2.4&#10;&#9;&#9;c0.9-0.8,2.1-1.2,3.3-1c1.1,0.2,2,0.9,2.5,1.9c0.4,0.9,0.7,1.8,0.7,2.8c0.2,4.1-1.8,7.9-5.2,10.1&#10;&#9;&#9;C276.9,138.5,276.7,138.5,276.6,138.5z"/>
	
		<ellipse transform="matrix(4.993762e-02 -0.9988 0.9988 4.993762e-02 128.5655 382.4103)" class="st2_career-3-92" cx="265.3" cy="123.6" rx="1.8" ry="0.7"/>
	<path class="st0_career-3-92" d="M291.8,155l-1.5-5.4l-21.5,1.3l-2.3,8C275.1,160.3,283.9,158.9,291.8,155z"/>
	<path class="st2_career-3-92" d="M272.5,160.2c-2.1,0-4.2-0.2-6.2-0.5c-0.2,0-0.4-0.2-0.5-0.4c-0.1-0.2-0.1-0.4-0.1-0.6l2.3-8&#10;&#9;&#9;c0.1-0.3,0.4-0.6,0.7-0.6l21.5-1.3c0.4,0,0.7,0.2,0.8,0.6l1.5,5.4c0.1,0.4-0.1,0.8-0.4,0.9C286,158.7,279.3,160.2,272.5,160.2z&#10;&#9;&#9; M267.4,158.3c8,1,16.1-0.3,23.4-3.8l-1.1-4.1l-20.3,1.3L267.4,158.3z"/>
	<path class="st0_career-3-92" d="M213.5,186.9c0,0-6.6-8.5-7.2-10.3s-0.6-5.4-2-7.9s-4.9-4.6-6.5-1.1c0,0-1-5.7-4.8-2.4s-4.5,7.1-3.4,11.4&#10;&#9;&#9;s17.8,26.1,17.8,26.1"/>
	<path class="st2_career-3-92" d="M207.5,203.5c-0.2,0-0.5-0.1-0.6-0.3c-0.7-0.9-16.8-22-17.9-26.4c-1.3-5-0.1-9,3.6-12.2&#10;&#9;&#9;c1.2-1.1,2.4-1.4,3.5-1.1c1,0.4,1.8,1.3,2.1,2.3c0.5-0.5,1.3-0.8,2-0.8c2-0.1,4,1.6,5,3.4c0.9,1.8,1.4,3.8,1.6,5.9&#10;&#9;&#9;c0.1,0.7,0.2,1.5,0.4,2.2c0.4,1.2,4.5,6.8,7,10c0.3,0.3,0.2,0.9-0.1,1.1c-0.4,0.3-0.9,0.2-1.1-0.1c-1.1-1.4-6.8-8.7-7.3-10.6&#10;&#9;&#9;c-0.2-0.8-0.4-1.6-0.5-2.4c-0.2-1.8-0.7-3.6-1.4-5.3c-0.8-1.5-2.3-2.6-3.5-2.6c-0.7,0-1.2,0.5-1.6,1.4c-0.1,0.3-0.5,0.5-0.8,0.5&#10;&#9;&#9;c-0.3,0-0.6-0.3-0.7-0.6c-0.1-0.6-0.6-2.4-1.6-2.8c-0.6-0.2-1.4,0.3-1.9,0.8c-3.3,2.8-4.2,6.2-3.1,10.6c0.9,3.4,13,19.8,17.6,25.9&#10;&#9;&#9;c0.3,0.4,0.2,0.9-0.1,1.1C207.9,203.5,207.7,203.5,207.5,203.5z"/>
	<path class="st0_career-3-92" d="M357.1,207.6c0,0,1.9,4.2,3,7.3s1.2,9,1.2,9c0.8-0.9,2-1.1,2.9-1.9c0.1,1.3,0.4,2.6,0.9,3.8&#10;&#9;&#9;c0.5,1.2,1.6,2.1,2.9,2.4c0.7,0,1.4-0.1,2-0.3c2.4-0.7,6.4-2.1,6.9-4.9c0.1-1.1-0.1-2.2-0.6-3.2c-1.7-4.3-9.7-15.5-11-17.3"/>
	<path class="st2_career-3-92" d="M368.4,229H368c-1.6-0.3-2.9-1.3-3.6-2.8c-0.4-0.9-0.7-1.8-0.8-2.8l-0.3,0.2c-0.5,0.2-0.9,0.5-1.3,0.9&#10;&#9;&#9;c-0.2,0.2-0.6,0.3-0.9,0.2c-0.3-0.1-0.5-0.4-0.5-0.7c0-0.1-0.2-5.8-1.2-8.8s-2.9-7.2-2.9-7.2c-0.2-0.4-0.1-0.9,0.3-1.1&#10;&#9;&#9;c0.4-0.2,0.9-0.1,1.1,0.3c0,0,0,0.1,0,0.1c0.1,0.2,2,4.3,3,7.4c0.7,2.5,1.1,5.1,1.2,7.7l0.5-0.2c0.4-0.2,0.8-0.4,1.1-0.7&#10;&#9;&#9;c0.2-0.2,0.5-0.3,0.8-0.2c0.3,0.1,0.5,0.4,0.5,0.7c0.1,1.2,0.3,2.4,0.8,3.6c0.4,1,1.3,1.7,2.3,1.9c0.6,0,1.2-0.1,1.7-0.3&#10;&#9;&#9;c2.7-0.8,6-2.1,6.4-4.3c0.1-1-0.1-1.9-0.5-2.8c-1.6-3.9-8.5-13.9-10.9-17.1c-0.3-0.4-0.2-0.9,0.2-1.1c0,0,0,0,0,0&#10;&#9;&#9;c0.4-0.3,0.8-0.2,1.1,0.2c0,0,0,0,0,0c0.1,0.1,9.1,12.7,11.1,17.4c0.6,1.1,0.8,2.4,0.6,3.7c-0.7,3.5-5.5,4.9-7.5,5.6&#10;&#9;&#9;C369.7,228.9,369,229,368.4,229z"/>
	<path class="st0_career-3-92" d="M252.1,310c0,0,2.7,12.1-2.3,14.3s-32.5-16.6-31-21.3s10.2-7,18.6-1.4C242.1,304.7,247,307.5,252.1,310z"/>
	<path class="st2_career-3-92" d="M248.9,325.3c-5.6,0-19.3-9.1-25.6-14.7c-6-5.4-5.4-7.2-5.3-7.9c0.8-2.2,2.6-3.9,4.8-4.5&#10;&#9;&#9;c4.4-1.6,10.1-0.6,15,2.7c4.6,3.1,9.5,5.9,14.5,8.4c0.2,0.1,0.4,0.3,0.5,0.6c0.3,1.3,2.7,12.9-2.7,15.2&#10;&#9;&#9;C249.7,325.2,249.3,325.3,248.9,325.3z M227.3,299.1c-1.3,0-2.6,0.2-3.9,0.6c-1.7,0.5-3.2,1.8-3.8,3.5c-0.2,0.5,0.6,2.5,4.8,6.1&#10;&#9;&#9;c8.5,7.6,22.4,15.4,25.1,14.2c3.4-1.5,2.6-9.5,1.9-13c-5-2.5-9.8-5.2-14.4-8.3C234.2,300.3,230.8,299.2,227.3,299.1z"/>
	<path class="st2_career-3-92" d="M300.4,250.7c0,0-30.4,10.6-53.9,8.1l5.9,51.1c0,0-8.5,3.8-19-7.8c0,0-13.9-62.3-8.2-65.8s60.8-4,60.8-4&#10;&#9;&#9;L300.4,250.7z"/>
	<path class="st2_career-3-92" d="M248.7,311.4c-3.6,0-9.4-1.5-15.9-8.7c-0.1-0.1-0.2-0.2-0.2-0.4c-2.4-10.5-13.7-63.1-7.8-66.6&#10;&#9;&#9;s58.9-4.1,61.2-4.1c0.2,0,0.5,0.1,0.6,0.3l14.4,18.3c0.2,0.2,0.2,0.5,0.1,0.7c-0.1,0.2-0.3,0.4-0.5,0.5c-0.3,0.1-30,10.3-53.2,8.2&#10;&#9;&#9;l5.8,50.1c0,0.3-0.1,0.7-0.5,0.8C251.5,311.2,250.1,311.4,248.7,311.4z M234.1,301.8c8.5,9.4,15.4,8.2,17.4,7.6l-5.8-50.5&#10;&#9;&#9;c-0.1-0.4,0.2-0.8,0.7-0.9c0.1,0,0.1,0,0.2,0c20.6,2.2,46.9-5.9,52.4-7.7l-13.4-17.1c-15.5,0.1-55.5,1.1-60,3.9&#10;&#9;&#9;C222,239.2,228.4,276.1,234.1,301.8L234.1,301.8z"/>
	<path class="st2_career-3-92" d="M316.8,240.5c0,0-1.2,48,0.4,48.7s48.2,34.4,48.2,34.4l1.7,15.7c0,0-65.1-27.9-68.5-36.6s-16.5-59.6-16.5-59.6&#10;&#9;&#9;L316.8,240.5z"/>
	<path class="st2_career-3-92" d="M367.1,340.1c-0.1,0-0.2,0-0.3-0.1c-2.7-1.1-65.4-28.2-68.9-37c-3.4-8.6-16-57.6-16.5-59.7&#10;&#9;&#9;c-0.1-0.4,0.2-0.9,0.6-1c0,0,0.1,0,0.1,0l34.7-2.6c0.4,0,0.8,0.3,0.9,0.8c0,0,0,0,0,0.1c-0.5,17.3-0.8,45.3,0.1,48&#10;&#9;&#9;c3.9,2.3,43.5,31,48.1,34.4c0.2,0.1,0.3,0.3,0.3,0.5l1.7,15.7c0,0.3-0.1,0.6-0.3,0.7C367.4,340,367.3,340.1,367.1,340.1z&#10;&#9;&#9; M283.1,243.8c1.8,6.9,13.1,50.7,16.2,58.6c2.7,6.7,48,27.5,66.8,35.6l-1.5-13.9c-18.5-13.4-46.2-33.4-47.7-34.1&#10;&#9;&#9;c-0.6-0.2-2.1-0.9-0.9-48.6L283.1,243.8z M317.8,288.7L317.8,288.7z M317.5,288.4L317.5,288.4L317.5,288.4z"/>
	<path class="st3_career-3-92 targetColor" d="M249.2,170.4c0,0,1.8-10.6,32.4-16.1c8.3-1.5,16.5-0.8,22.2,1.2c1.1,4.7,11,73.3,15.4,89.4&#10;&#9;&#9;c0,0-37,13.6-55.5-8.9C263.7,236,251.9,175.4,249.2,170.4z" style="fill: rgb(255, 142, 60);"/>
	<path class="st0_career-3-92" d="M418,257.7l-51,22.6c-2.9,1.3-6.2,0-7.5-2.9l-13-29.4c-1.3-2.9,0-6.2,2.9-7.5l51-22.6c2.9-1.3,6.2,0,7.5,2.9&#10;&#9;&#9;l13,29.4C422.1,253.1,420.8,256.4,418,257.7z"/>
	<path class="st2_career-3-92" d="M364.6,281.6c-2.6,0-4.9-1.5-5.9-3.9l-13-29.4c-1.5-3.3,0-7.1,3.3-8.6l51-22.6c3.3-1.5,7.1,0,8.6,3.3l13,29.4&#10;&#9;&#9;c1.5,3.3,0,7.1-3.3,8.6c0,0,0,0,0,0l-51,22.6C366.5,281.4,365.6,281.6,364.6,281.6z M402.6,218.2c-0.7,0-1.4,0.1-2,0.4l-51,22.6&#10;&#9;&#9;c-2.5,1.1-3.6,4-2.5,6.5l13,29.4c1.1,2.5,4,3.6,6.5,2.5l0,0l51-22.6c2.5-1.1,3.6-4,2.5-6.5l-13-29.4&#10;&#9;&#9;C406.3,219.3,404.6,218.2,402.6,218.2L402.6,218.2z"/>
	<path class="st1_career-3-92" d="M355.3,251.5c-0.4-0.1-0.8-0.5-0.7-0.9c0-0.3,0.2-0.5,0.4-0.6l48.6-21.5c0.4-0.2,0.9,0,1,0.4c0,0,0,0,0,0&#10;&#9;&#9;c0.2,0.4,0,0.9-0.4,1.1c0,0,0,0,0,0l-48.6,21.5C355.5,251.5,355.4,251.5,355.3,251.5z"/>
	<path class="st2_career-3-92" d="M363.5,235c-0.1,0-0.2,0-0.3-0.1c-0.2-0.1-0.4-0.2-0.5-0.4l-1.9-4.4c-0.6-1.2-0.6-2.6-0.1-3.9&#10;&#9;&#9;c0.5-1.3,1.5-2.3,2.7-2.8l14.8-6.6c2.6-1.1,5.6,0,6.7,2.6c0,0,0,0,0,0l1.9,4.3c0.2,0.4,0,0.9-0.4,1.1c0,0,0,0,0,0L363.8,235&#10;&#9;&#9;C363.7,235,363.6,235,363.5,235z M380.3,218c-0.5,0-1,0.1-1.4,0.3l-14.9,6.6c-1.8,0.8-2.6,2.8-1.8,4.6c0,0,0,0,0,0l1.6,3.6&#10;&#9;&#9;l21.2-9.4l-1.6-3.6C382.9,218.9,381.6,218.1,380.3,218L380.3,218z"/>
	<path class="st3_career-3-92 targetColor" d="M296,153.6c0,0,30.9,7,38.5,11.6s37.1,36.5,37.1,36.5L352,212.8c0,0-18.5-22.3-23.9-25.5s-29.7-0.6-29.7-0.6&#10;&#9;&#9;L296,153.6z" style="fill: rgb(255, 142, 60);"/>
	<path class="st3_career-3-92 targetColor" d="M249.2,170.4c0,0-17.6,32.1-20.6,30.4S213,179.9,213,179.9l-14,15.9c0,0,11.5,36,28.4,31.9s42.7-34,42.7-34&#10;&#9;&#9;L249.2,170.4z" style="fill: rgb(255, 142, 60);"/>
	<path class="st2_career-3-92" d="M245.5,218.2c-0.3,0-0.5-0.1-0.7-0.4c-0.2-0.4-0.1-0.9,0.2-1.1c14-8.8,24.3-23.4,24.4-23.5&#10;&#9;&#9;c0.3-0.4,0.8-0.5,1.1-0.2c0.4,0.3,0.5,0.8,0.2,1.1c-0.1,0.1-10.5,15-24.8,24C245.8,218.2,245.7,218.2,245.5,218.2z"/>
	<path class="st2_career-3-92" d="M316,231c-0.4,0-0.7-0.3-0.8-0.6c-1.9-9.5-9-56.9-9-57.4c-0.1-0.4,0.2-0.9,0.6-0.9s0.9,0.2,0.9,0.6&#10;&#9;&#9;c0,0,0,0.1,0,0.1c0.1,0.5,7.1,47.9,9,57.3c0.1,0.4-0.2,0.9-0.6,0.9c0,0,0,0,0,0C316.2,231,316.1,231,316,231z"/>
	<path class="st0_career-3-92" d="M357.1,332.7c-3.5-11.4,0.3-16.7,4.4-16.9s6.7-0.9,9.9,10.3s3.6,28.9-2.9,29.8S360.6,344.1,357.1,332.7z"/>
	<path class="st2_career-3-92" d="M367.9,356.8c-5.2,0-7.2-7.7-9.5-16.5c-0.6-2.4-1.3-4.9-2-7.3c-2-6.5-1.9-12,0.4-15.2c1.1-1.6,2.8-2.6,4.7-2.8&#10;&#9;&#9;h0.5c4.5-0.3,7.2,0.1,10.3,10.9c2.7,9.4,3.3,23.1-0.1,28.4c-0.7,1.3-2,2.2-3.5,2.4C368.4,356.8,368.2,356.8,367.9,356.8z&#10;&#9;&#9; M363.4,316.5c-0.4,0-0.9,0-1.4,0.1h-0.5c-1.4,0.1-2.7,0.9-3.5,2.1c-1.1,1.6-2.7,5.6-0.2,13.8l0,0c0.8,2.4,1.4,4.9,2,7.4&#10;&#9;&#9;c2.2,8.5,4.2,15.9,8.5,15.2c1-0.2,1.8-0.8,2.3-1.7c3.1-4.9,2.5-18.2-0.1-27C368.1,317.6,366.2,316.5,363.4,316.5L363.4,316.5z"/>
</g>
</svg>